<svg xmlns="http://www.w3.org/2000/svg" viewBox="0 0 384.83 372.62"><defs><style>.cls-1{fill:#260e4a;}</style></defs><title>MF-Main </title><g id="Layer_2" data-name="Layer 2"><g id="Layer_1-2" data-name="Layer 1"><path class="cls-1" d="M328,56A191,191,0,0,0,192.43,0H191.3A192.45,192.45,0,0,0,33.65,301.16a9.81,9.81,0,0,0,13.87,2.39l.63-.46a9.73,9.73,0,0,0,2.33-13.47C23,249.66,14,200.78,25,152A167.43,167.43,0,0,1,70,70.38a169.14,169.14,0,0,1,81.63-45.26C204.17,13,258,24.88,299.31,57.74a171.93,171.93,0,0,1,35,231.88,9.73,9.73,0,0,0,2.33,13.47l.5.36a10,10,0,0,0,14.1-2.44A192.29,192.29,0,0,0,328,56Z"/><path class="cls-1" d="M305.91,249.83l-6-1.17a98.12,98.12,0,0,0-63.24,8.91,98.09,98.09,0,0,0-39.14-53.38l-5.08-3.44-5.09,3.44a98.09,98.09,0,0,0-39.14,53.38A98.12,98.12,0,0,0,85,248.66l-6,1.17-1.16,6a98,98,0,0,0,26.94,88h0a98.13,98.13,0,0,0,87.72,27,98.1,98.1,0,0,0,114.66-115ZM192.42,223a79.94,79.94,0,0,1,0,125,79.92,79.92,0,0,1,0-125ZM94.63,265.53a80,80,0,0,1,49.93,10.79q-.44,4.55-.43,9.17a98,98,0,0,0,28.33,68.95,79.93,79.93,0,0,1-77.83-88.91ZM267.3,331.05a79.87,79.87,0,0,1-54.93,23.4,98,98,0,0,0,28.33-69q0-4.62-.43-9.17a79.94,79.94,0,0,1,49.93-10.79A79.87,79.87,0,0,1,267.3,331.05Z"/></g></g></svg>