<?xml version="1.0" encoding="utf-8"?>
<!-- Generator: Adobe Illustrator 18.0.0, SVG Export Plug-In . SVG Version: 6.00 Build 0)  -->
<!DOCTYPE svg PUBLIC "-//W3C//DTD SVG 1.1//EN" "http://www.w3.org/Graphics/SVG/1.1/DTD/svg11.dtd">
<svg version="1.1" id="Icons" xmlns="http://www.w3.org/2000/svg" xmlns:xlink="http://www.w3.org/1999/xlink" x="0px" y="0px"
	 viewBox="0 0 30 30" enable-background="new 0 0 30 30" xml:space="preserve">
<path id="XMLID_1018_" fill="#ffffff" d="M12,8c3.87,0,7,3.13,7,7s-3.13,7-7,7s-7-3.13-7-7S8.13,8,12,8z M14,15c0-1.1-0.9-2-2-2
	s-2,0.9-2,2s0.9,2,2,2S14,16.1,14,15z"/>
<path id="XMLID_1016_" fill="#ffffff" d="M12,13c1.1,0,2,0.9,2,2s-0.9,2-2,2s-2-0.9-2-2S10.9,13,12,13z"/>
<rect x="27.5" y="25" fill="#260e4a" width="2.5" height="2"/>
<path fill="#260e4a" d="M11.40381,5.0166l-0.11719-1.99609C9.42969,3.12891,7.6709,3.64941,6.05859,4.56836l0.99023,1.73828
	C8.39111,5.54102,9.85645,5.10742,11.40381,5.0166z"/>
<path fill="#260e4a" d="M4.25684,5.8291C3.99951,6.04688,3.75146,6.27441,3.51318,6.5127
	C2.4458,7.58008,1.59961,8.82031,0.99805,10.19727l1.83301,0.80078C3.33203,9.84961,4.0376,8.81641,4.92725,7.92676
	C5.12646,7.72754,5.33447,7.53711,5.5498,7.35449L4.25684,5.8291z"/>
<rect x="13.37891" y="25" fill="#260e4a" width="5.04199" height="2"/>
<rect x="20.4209" y="3" fill="#260e4a" width="5.04248" height="2"/>
<path fill="#260e4a" d="M11.30566,26.97949l0.11328-1.99609c-1.54785-0.08789-3.01367-0.51953-4.35596-1.28223l-0.98828,1.73828
	C7.6875,26.35645,9.44775,26.87402,11.30566,26.97949z"/>
<rect x="13.36182" y="3" fill="#260e4a" width="5.04248" height="2"/>
<path fill="#260e4a" d="M2,15c0-0.76465,0.08643-1.52637,0.25684-2.26465l-1.94922-0.44922C0.10352,13.1709,0,14.08398,0,15.00098
	c0.00049,0.92383,0.10596,1.84375,0.31299,2.73438l1.94824-0.45313C2.08838,16.54004,2.00049,15.77148,2,15z"/>
<path fill="#260e4a" d="M4.27246,24.18359l1.28809-1.5293c-1.16943-0.98535-2.11133-2.24316-2.72314-3.63672l-1.83105,0.80273
	C1.74023,21.49414,2.86963,23.00195,4.27246,24.18359z"/>
<rect x="20.43799" y="25" fill="#260e4a" width="5.04199" height="2"/>
<rect x="27.5" y="3" fill="#260e4a" width="2.5" height="2"/>
<path fill="#260e4a" d="M12,7c-4.41113,0-8,3.58887-8,8s3.58887,8,8,8s8-3.58887,8-8S16.41113,7,12,7z M12,21
	c-3.30859,0-6-2.69141-6-6s2.69141-6,6-6s6,2.69141,6,6S15.30859,21,12,21z"/>
<path fill="#260e4a" d="M12,12c-1.6543,0-3,1.3457-3,3s1.3457,3,3,3s3-1.3457,3-3S13.6543,12,12,12z M12,16
	c-0.55127,0-1-0.44824-1-1s0.44873-1,1-1s1,0.44824,1,1S12.55127,16,12,16z"/>
</svg>
