<?xml version="1.0" encoding="utf-8"?>
<!-- Generator: Adobe Illustrator 18.0.0, SVG Export Plug-In . SVG Version: 6.00 Build 0)  -->
<!DOCTYPE svg PUBLIC "-//W3C//DTD SVG 1.1//EN" "http://www.w3.org/Graphics/SVG/1.1/DTD/svg11.dtd">
<svg version="1.1" id="Icons" xmlns="http://www.w3.org/2000/svg" xmlns:xlink="http://www.w3.org/1999/xlink" x="0px" y="0px"
	 viewBox="0 0 30 30" enable-background="new 0 0 30 30" xml:space="preserve">
<polygon id="XMLID_862_" fill="#A7F176" points="26,8 26,29 4,29 4,8 9,8 21,8 "/>
<g id="XMLID_37_">
	<path fill="#4E257A" d="M27,7h-5c0-1.87842-0.72998-3.63672-2.04932-4.94434C18.63672,0.72998,16.87842,0,15,0
		c-3.85986,0-7,3.14014-7,7H3v23h24V7z M15,2c1.34082,0,2.59473,0.52002,3.53613,1.47021C19.47998,4.40527,20,5.65918,20,7H10
		C10,4.24316,12.24316,2,15,2z M25,28H5V9h3v2H7v2h4v-2h-1V9h10v2h-1v2h4v-2h-1V9h3V28z"/>
</g>
</svg>
