<?xml version="1.0" encoding="utf-8"?>
<!-- Generator: Adobe Illustrator 18.0.0, SVG Export Plug-In . SVG Version: 6.00 Build 0)  -->
<!DOCTYPE svg PUBLIC "-//W3C//DTD SVG 1.1//EN" "http://www.w3.org/Graphics/SVG/1.1/DTD/svg11.dtd">
<svg version="1.1" id="Icons" xmlns="http://www.w3.org/2000/svg" xmlns:xlink="http://www.w3.org/1999/xlink" x="0px" y="0px"
	 viewBox="0 0 30 30" enable-background="new 0 0 30 30" xml:space="preserve">
<g id="XMLID_37_">
	<path id="XMLID_879_" fill="#ffffff" d="M1,23V11h28v12c0,1.1-0.9,2-2,2H3C1.9,25,1,24.1,1,23z"/>
	<path id="XMLID_878_" fill="#ffffff" d="M29,7v4H1V7c0-1.1,0.9-2,2-2h24C28.1,5,29,5.9,29,7z"/>
	<path fill="#260e4a" d="M27,4H3C1.3457,4,0,5.3457,0,7v16c0,1.6543,1.3457,3,3,3h24c1.6543,0,3-1.3457,3-3V7
		C30,5.3457,28.6543,4,27,4z M3,6h24c0.55176,0,1,0.44873,1,1v3H2V7C2,6.44873,2.44873,6,3,6z M27,24H3c-0.55127,0-1-0.44873-1-1V12
		h26v11C28,23.55127,27.55176,24,27,24z"/>
	<rect x="4" y="20" fill="#260e4a" width="3" height="2"/>
	<rect x="9" y="20" fill="#260e4a" width="3" height="2"/>
	<rect x="14" y="20" fill="#260e4a" width="3" height="2"/>
	<rect x="19" y="20" fill="#260e4a" width="3" height="2"/>
</g>
</svg>
