<?xml version="1.0" encoding="utf-8"?>
<!-- Generator: Adobe Illustrator 18.0.0, SVG Export Plug-In . SVG Version: 6.00 Build 0)  -->
<!DOCTYPE svg PUBLIC "-//W3C//DTD SVG 1.1//EN" "http://www.w3.org/Graphics/SVG/1.1/DTD/svg11.dtd">
<svg version="1.1" id="Icons" xmlns="http://www.w3.org/2000/svg" xmlns:xlink="http://www.w3.org/1999/xlink" x="0px" y="0px"
	 viewBox="0 0 30 30" enable-background="new 0 0 30 30" xml:space="preserve">
<path id="XMLID_989_" fill="#ffffff" d="M29,16v7h-3c0-1.66-1.34-3-3-3s-3,1.34-3,3h-3v-7H29z"/>
<polygon id="XMLID_988_" fill="#ffffff" points="24,9 29,16 17,16 17,9 "/>
<path id="XMLID_987_" fill="#ffffff" d="M17,16v7h-7c0-1.66-1.34-3-3-3s-3,1.34-3,3H1V4h16v5V16z"/>
<path id="XMLID_986_" fill="#ffffff" d="M7,20c1.66,0,3,1.34,3,3s-1.34,3-3,3s-3-1.34-3-3S5.34,20,7,20z"/>
<path id="XMLID_985_" fill="#ffffff" d="M23,20c1.66,0,3,1.34,3,3s-1.34,3-3,3s-3-1.34-3-3S21.34,20,23,20z"/>
<path fill="#260e4a" d="M18,8V3H0v21h3.14203C3.58929,25.72028,5.14172,27,7,27s3.41071-1.27972,3.85797-3h8.28406
	C19.58917,25.72028,21.1413,27,23,27s3.41083-1.27972,3.85797-3H30v-8.32031L24.51465,8H18z M23.48535,10l3.57153,5H18v-5H23.48535z
	 M7,25c-1.10303,0-2-0.89697-2-2s0.89697-2,2-2s2,0.89697,2,2S8.10303,25,7,25z M7,19c-1.85828,0-3.41071,1.27972-3.85797,3H2V5h14
	v17h-5.14203C10.41071,20.27972,8.85828,19,7,19z M23,25c-1.10254,0-2-0.89697-2-2s0.89746-2,2-2s2,0.89697,2,2S24.10254,25,23,25z
	 M26.85797,22C26.41083,20.27972,24.8587,19,23,19s-3.41083,1.27972-3.85797,3H18v-5h10v5H26.85797z"/>
</svg>
