<?xml version="1.0" encoding="utf-8"?>
<!-- Generator: Adobe Illustrator 18.0.0, SVG Export Plug-In . SVG Version: 6.00 Build 0)  -->
<!DOCTYPE svg PUBLIC "-//W3C//DTD SVG 1.1//EN" "http://www.w3.org/Graphics/SVG/1.1/DTD/svg11.dtd">
<svg version="1.1" id="Icons" xmlns="http://www.w3.org/2000/svg" xmlns:xlink="http://www.w3.org/1999/xlink" x="0px" y="0px"
	 viewBox="0 0 30 30" enable-background="new 0 0 30 30" xml:space="preserve">
<path id="XMLID_1092_" fill="#FFD483" d="M29,21v1l-2.14,0.27c-0.15,0.71-0.43,1.38-0.82,1.98l1.32,1.7l-0.7,0.71l-0.71,0.7
	l-1.7-1.32c-0.6,0.39-1.27,0.67-1.98,0.82L22,29h-1h-1l-0.27-2.14c-0.71-0.15-1.38-0.43-1.98-0.82l-1.7,1.32l-0.71-0.7l-0.7-0.71
	l1.32-1.7c-0.39-0.6-0.67-1.27-0.82-1.98L13,22v-1v-1l2.14-0.27c0.15-0.71,0.43-1.38,0.82-1.98l-1.32-1.7l0.7-0.71l0.71-0.7
	l1.7,1.32c0.6-0.39,1.27-0.67,1.98-0.82L20,13h1h1l0.27,2.14c0.71,0.15,1.38,0.43,1.98,0.82l1.7-1.32l0.71,0.7l0.7,0.71l-1.32,1.7
	c0.39,0.6,0.67,1.27,0.82,1.98L29,20V21z M23,21c0-1.1-0.9-2-2-2s-2,0.9-2,2s0.9,2,2,2S23,22.1,23,21z"/>
<path id="XMLID_1089_" fill="#66D4FE" d="M15,8v1l-1.11,0.16c-0.16,0.79-0.47,1.53-0.91,2.18l0.68,0.9l-0.71,0.71l-0.71,0.71
	l-0.9-0.68c-0.65,0.44-1.39,0.75-2.18,0.91L9,15H8H7l-0.16-1.11c-0.79-0.16-1.53-0.47-2.18-0.91l-0.9,0.68l-0.71-0.71l-0.71-0.71
	l0.68-0.9c-0.44-0.65-0.75-1.39-0.91-2.18L1,9V8V7l1.11-0.16c0.16-0.79,0.47-1.53,0.91-2.18l-0.68-0.9l0.71-0.71l0.71-0.71l0.9,0.68
	c0.65-0.44,1.39-0.75,2.18-0.91L7,1h1h1l0.16,1.11c0.79,0.16,1.53,0.47,2.18,0.91l0.9-0.68l0.71,0.71l0.71,0.71l-0.68,0.9
	c0.44,0.65,0.75,1.39,0.91,2.18L15,7V8z M10,8c0-1.1-0.9-2-2-2S6,6.9,6,8s0.9,2,2,2S10,9.1,10,8z"/>
<path fill="#4E257A" d="M14.98242,12.33203l-0.79688-1.05664c0.20703-0.38867,0.37695-0.79688,0.50781-1.2207L16,9.86621V6.13379
	l-1.30664-0.18848c-0.13086-0.42383-0.30078-0.83203-0.50781-1.2207l0.79688-1.05664l-2.65039-2.65039l-1.05664,0.79688
	c-0.38867-0.20703-0.79688-0.37695-1.2207-0.50781L9.86621,0H6.13379L5.94531,1.30664
	C5.52148,1.4375,5.11328,1.60742,4.72461,1.81445L3.66797,1.01758L1.01758,3.66797l0.79688,1.05664
	C1.60742,5.11328,1.4375,5.52148,1.30664,5.94531L0,6.13379v3.73242l1.30664,0.18848
	c0.13086,0.42383,0.30078,0.83203,0.50781,1.2207l-0.79688,1.05664l2.65039,2.65039l1.05664-0.79688
	c0.38867,0.20703,0.79688,0.37695,1.2207,0.50781L6.13379,16h3.73242l0.18848-1.30664
	c0.42383-0.13086,0.83203-0.30078,1.2207-0.50781l1.05664,0.79688L14.98242,12.33203z M11.37207,11.75195l-0.59277,0.40039
	c-0.5459,0.36914-1.15723,0.62402-1.81641,0.75684l-0.69141,0.13965L8.13379,14H7.86621l-0.1377-0.95117l-0.69141-0.13965
	c-0.65918-0.13281-1.27051-0.3877-1.81641-0.75684l-0.59277-0.40039l-0.77637,0.58594l-0.18945-0.18945l0.58594-0.77637
	L3.84766,10.7793c-0.36914-0.5459-0.62402-1.15723-0.75684-1.81641L2.95117,8.27148L2,8.13379V7.86621l0.95117-0.1377
	l0.13965-0.69141C3.22363,6.37793,3.47852,5.7666,3.84766,5.2207l0.40039-0.59277L3.66211,3.85156l0.18945-0.18945l0.77637,0.58594
	L5.2207,3.84766c0.5459-0.36914,1.15723-0.62402,1.81641-0.75684l0.69141-0.13965L7.86621,2h0.26758l0.1377,0.95117l0.69141,0.13965
	c0.65918,0.13281,1.27051,0.3877,1.81641,0.75684l0.59277,0.40039l0.77637-0.58594l0.18945,0.18945l-0.58594,0.77637
	l0.40039,0.59277c0.36914,0.5459,0.62402,1.15723,0.75684,1.81641l0.13965,0.69141L14,7.86621v0.26758l-0.95117,0.1377
	l-0.13965,0.69141c-0.13281,0.65918-0.3877,1.27051-0.75684,1.81641l-0.40039,0.59277l0.58594,0.77637l-0.18945,0.18945
	L11.37207,11.75195z"/>
<path fill="#4E257A" d="M8,5C6.3457,5,5,6.3457,5,8s1.3457,3,3,3s3-1.3457,3-3S9.6543,5,8,5z M8,9C7.44824,9,7,8.55176,7,8
	s0.44824-1,1-1s1,0.44824,1,1S8.55176,9,8,9z"/>
<path fill="#4E257A" d="M27.24121,17.83301l1.44629-1.86133l-2.65918-2.65918l-1.86133,1.44629
	c-0.31934-0.16309-0.64941-0.2998-0.98926-0.41016L22.88184,12h-3.76367l-0.2959,2.34863
	c-0.33984,0.11035-0.66992,0.24707-0.98926,0.41016l-1.86133-1.44629l-2.65918,2.65918l1.44629,1.86133
	c-0.16309,0.31934-0.2998,0.64941-0.41016,0.98926L12,19.11816v3.76367l2.34863,0.2959
	c0.11035,0.33984,0.24707,0.66992,0.41016,0.98926l-1.44629,1.86133l2.65918,2.65918l1.86133-1.44629
	c0.31934,0.16309,0.64941,0.2998,0.98926,0.41016L19.11816,30h3.76367l0.2959-2.34863
	c0.33984-0.11035,0.66992-0.24707,0.98926-0.41016l1.86133,1.44629l2.65918-2.65918l-1.44629-1.86133
	c0.16309-0.31934,0.2998-0.64941,0.41016-0.98926L30,22.88184v-3.76367l-2.34863-0.2959
	C27.54102,18.48242,27.4043,18.15234,27.24121,17.83301z M28,21.11816l-1.9707,0.24805l-0.14746,0.69629
	c-0.12402,0.58594-0.35254,1.13867-0.68066,1.64258l-0.3877,0.59668l1.21973,1.57031l-0.16113,0.16113l-1.57031-1.21973
	l-0.59668,0.3877c-0.50391,0.32813-1.05664,0.55664-1.64258,0.68066l-0.69629,0.14746L21.11816,28h-0.23633l-0.24805-1.9707
	l-0.69629-0.14746c-0.58594-0.12402-1.13867-0.35254-1.64258-0.68066l-0.59668-0.3877l-1.57031,1.21973l-0.16113-0.16113
	l1.21973-1.57031l-0.3877-0.59668c-0.32813-0.50391-0.55664-1.05664-0.68066-1.64258l-0.14746-0.69629L14,21.11816v-0.23633
	l1.9707-0.24805l0.14746-0.69629c0.12402-0.58594,0.35254-1.13867,0.68066-1.64258l0.3877-0.59668l-1.21973-1.57031l0.16113-0.16113
	l1.57031,1.21973l0.59668-0.3877c0.50391-0.32813,1.05664-0.55664,1.64258-0.68066l0.69629-0.14746L20.88184,14h0.23633
	l0.24805,1.9707l0.69629,0.14746c0.58594,0.12402,1.13867,0.35254,1.64258,0.68066l0.59668,0.3877l1.57031-1.21973l0.16113,0.16113
	l-1.21973,1.57031l0.3877,0.59668c0.32813,0.50391,0.55664,1.05664,0.68066,1.64258l0.14746,0.69629L28,20.88184V21.11816z"/>
<path fill="#4E257A" d="M21,18c-1.6543,0-3,1.3457-3,3s1.3457,3,3,3s3-1.3457,3-3S22.6543,18,21,18z M21,22
	c-0.55176,0-1-0.44824-1-1s0.44824-1,1-1s1,0.44824,1,1S21.55176,22,21,22z"/>
</svg>
