<?xml version="1.0" encoding="utf-8"?>
<!-- Generator: Adobe Illustrator 23.0.0, SVG Export Plug-In . SVG Version: 6.00 Build 0)  -->
<svg version="1.1" id="Layer_1" xmlns="http://www.w3.org/2000/svg" xmlns:xlink="http://www.w3.org/1999/xlink" x="0px" y="0px"
	 viewBox="0 0 716.4 164.6" style="enable-background:new 0 0 716.4 164.6;" xml:space="preserve">
<style type="text/css">
	.st0{enable-background:new    ;}
	.st1{fill:#d7ddf7;}
</style>
<title>MF-Wide</title>
<g>
	<g id="Layer_5">
		<g class="st0">
			<path class="st1" d="M219.4,65.5l2.9,4.8c0.8-1.6,2.4-3,4.8-4.3c2.4-1.3,4.9-1.9,7.5-1.9c6.8,0,11.6,2.7,14.5,8.1
				c1.3-2.5,3.2-4.5,5.8-5.9c2.6-1.5,5.3-2.2,8.1-2.2c5,0,8.9,1.5,11.7,4.6s4.3,7.1,4.3,12.1V109h-9.8V82.2c0-3.2-0.9-5.7-2.6-7.3
				c-1.8-1.6-3.9-2.4-6.4-2.4c-2.1,0-4.1,0.8-5.9,2.5c-1.8,1.7-2.8,4-2.8,7.1V109h-10.1V82.2c0-3.3-0.9-5.8-2.6-7.4
				c-1.7-1.6-3.8-2.4-6.3-2.4c-2.3,0-4.4,0.8-6.2,2.5c-1.8,1.7-2.8,4.1-2.8,7.3V109h-9.8V65.5H219.4z"/>
		</g>
		<g class="st0">
			<path class="st1" d="M311,110.3c-6.7,0-12.2-2.2-16.6-6.6c-4.4-4.4-6.6-9.9-6.6-16.6c0-6.7,2.2-12.1,6.7-16.4
				c4.5-4.3,10-6.4,16.6-6.4c6.3,0,11.8,2.2,16.3,6.6c4.6,4.4,6.8,9.8,6.8,16.3c0,6.7-2.3,12.2-6.8,16.6
				C323,108.1,317.5,110.3,311,110.3z M311.1,102.4c3.7,0,6.8-1.4,9.5-4.2c2.6-2.8,3.9-6.5,3.9-11.1c0-4.6-1.3-8.2-4-10.9
				c-2.7-2.7-5.8-4.1-9.5-4.1c-3.7,0-6.8,1.4-9.4,4.1c-2.6,2.7-3.9,6.4-3.9,11c0,4.6,1.3,8.3,4,11.1
				C304.3,101,307.4,102.4,311.1,102.4z"/>
		</g>
		<g class="st0">
			<path class="st1" d="M365,110.3c-6.7,0-12.2-2.2-16.6-6.6c-4.4-4.4-6.6-9.9-6.6-16.6c0-6.7,2.2-12.1,6.7-16.4
				c4.5-4.3,10-6.4,16.6-6.4c6.3,0,11.8,2.2,16.3,6.6c4.6,4.4,6.8,9.8,6.8,16.3c0,6.7-2.3,12.2-6.8,16.6
				C377.1,108.1,371.6,110.3,365,110.3z M365.1,102.4c3.7,0,6.8-1.4,9.5-4.2c2.6-2.8,3.9-6.5,3.9-11.1c0-4.6-1.3-8.2-4-10.9
				c-2.7-2.7-5.8-4.1-9.5-4.1c-3.7,0-6.8,1.4-9.4,4.1c-2.6,2.7-3.9,6.4-3.9,11c0,4.6,1.3,8.3,4,11.1
				C358.4,101,361.5,102.4,365.1,102.4z"/>
			<path class="st1" d="M404.6,65.5l2.9,5.8c1.5-2.1,3.5-3.8,6.3-5.2c2.7-1.3,5.7-2,8.8-2c5.1,0,9.5,1.7,13.1,5
				c3.6,3.3,5.3,7.6,5.3,12.9V109h-9.8V83.5c0-3.4-1.1-6.2-3.4-8.2c-2.2-2-4.9-3.1-7.8-3.1c-2.7,0-5.3,1-7.7,3.1
				c-2.4,2-3.7,4.8-3.7,8.1V109h-9.8V65.5H404.6z"/>
			<path class="st1" d="M499.2,38.3V109h-9.8V50.2c-2.8-2-6-3.2-9.5-3.7c-3.5-0.5-6.5,0.3-9.2,2.2c-2.7,1.9-4,5-4,9.2v7.6h13.6v7.8
				h-13.6V109H457V73.3h-7.2v-1l1-6.8h6.2v-7.4c0-4.7,1.1-8.6,3.2-11.8c2.1-3.2,4.8-5.4,8-6.6c3.2-1.2,6.7-1.6,10.5-1.3
				c3.8,0.3,7.4,1.5,10.7,3.4v-2.3l8.9-1.2H499.2z"/>
		</g>
		<g class="st0">
			<path class="st1" d="M535.5,110.3c-6.7,0-12.2-2.2-16.6-6.6c-4.4-4.4-6.6-9.9-6.6-16.6c0-6.7,2.2-12.1,6.7-16.4
				c4.5-4.3,10-6.4,16.6-6.4c6.3,0,11.8,2.2,16.3,6.6c4.6,4.4,6.8,9.8,6.8,16.3c0,6.7-2.3,12.2-6.8,16.6
				C547.5,108.1,542,110.3,535.5,110.3z M535.6,102.4c3.7,0,6.8-1.4,9.5-4.2c2.6-2.8,3.9-6.5,3.9-11.1c0-4.6-1.3-8.2-4-10.9
				c-2.7-2.7-5.8-4.1-9.5-4.1c-3.7,0-6.8,1.4-9.4,4.1c-2.6,2.7-3.9,6.4-3.9,11c0,4.6,1.3,8.3,4,11.1
				C528.8,101,531.9,102.4,535.6,102.4z"/>
		</g>
		<g class="st0">
			<path class="st1" d="M620.1,65.5h9.6l-18.5,44.3h-3.5L596,81.6l-11.9,28.2h-3.6l-18.1-44.3h10.4L583,91l11.5-26.4h3.6L609.5,91
				L620.1,65.5z"/>
		</g>
		<g class="st0">
			<path class="st1" d="M676.5,89.5H643c0.2,3.4,1.7,6.3,4.6,8.9c2.8,2.6,6.5,3.9,11,3.9c4.4,0,8.8-1.3,13.2-4l3.7,6.8
				c-4.6,3.4-10.6,5.1-17.9,5.1c-7.3,0-13.1-2.2-17.6-6.7c-4.5-4.5-6.7-10-6.7-16.4c0-6.9,2.2-12.4,6.6-16.6
				c4.4-4.2,9.6-6.3,15.6-6.3c6.3,0,11.5,2.3,15.6,6.8C675.1,75.6,677,81.8,676.5,89.5z M643.6,82.6h23.2c-0.1-3.2-1.3-5.8-3.6-7.8
				c-2.3-1.9-4.8-2.9-7.7-2.9c-3,0-5.7,1.1-8,3.3C645.2,77.4,643.9,79.9,643.6,82.6z"/>
			<path class="st1" d="M687,109V65.5h5.8l2.7,6c0.9-1.9,2.4-3.6,4.5-5.1c2.1-1.5,4.4-2.2,6.7-2.2c2.4,0,4.6,0.6,6.5,1.7l-1.8,8.7
				l-0.6,0.2c-1.6-0.9-3.5-1.3-5.6-1.3c-1.7,0-3.3,0.5-4.8,1.4c-1.6,1-2.8,2.3-3.6,4.1V109H687z"/>
		</g>
		<path class="st1" d="M144.9,24.8C129,8.9,107.5,0,85,0h-0.5C37.4,0.4-0.4,38.9,0,85.9c0,0.1,0,0.1,0,0.2
			c0.2,16.8,5.4,33.1,14.9,46.9c0.7,1,1.7,1.6,2.8,1.8c0.2,0,0.5,0.1,0.8,0.1c0.9,0,1.8-0.3,2.5-0.8l0.3-0.2c1.9-1.4,2.3-4,1-5.9
			C10.2,110.3,6.2,88.7,11,67.1c3.1-13.6,10-26.1,19.9-36c9.9-9.9,22.4-16.9,36.1-20c22.8-5.4,46.8-0.1,65.2,14.4
			c31.2,24.8,38,69.5,15.5,102.4c-1.3,1.9-0.9,4.6,1,6l0.2,0.2c2,1.4,4.8,1,6.2-1c0,0,0-0.1,0.1-0.1
			C178.3,99.1,173.9,53.6,144.9,24.8z"/>
		<path class="st1" d="M135.1,110.3l-2.7-0.5c-9.5-1.8-19.3-0.5-27.9,3.9c-2.9-9.6-9-18-17.3-23.6L85,88.7l-2.2,1.5
			c-8.3,5.6-14.4,14-17.3,23.6c-8.6-4.4-18.4-5.8-27.9-3.9l-2.7,0.5l-0.5,2.7c-2.7,14.1,1.7,28.7,11.9,38.9l0,0
			c8.1,8.1,19.1,12.7,30.6,12.7c2.7,0,5.4-0.3,8.1-0.8c2.7,0.5,5.4,0.8,8.1,0.8c23.9,0,43.3-19.4,43.3-43.3c0-2.8-0.3-5.5-0.8-8.2
			L135.1,110.3z M85,98.5c15.3,12.1,17.8,34.4,5.6,49.6c-1.7,2.1-3.5,4-5.6,5.6c-15.3-12.1-17.8-34.4-5.6-49.6
			C81,102,82.9,100.1,85,98.5z M41.8,117.3c7.7-0.9,15.4,0.8,22,4.8c-0.1,1.3-0.2,2.7-0.2,4.1c0,11.4,4.5,22.3,12.5,30.4
			c-19.5-0.4-35-16.5-34.6-36C41.6,119.5,41.7,118.4,41.8,117.3z M118.1,146.2c-6.5,6.5-15.1,10.2-24.3,10.3
			c8-8.1,12.5-19,12.5-30.4c0-1.4-0.1-2.7-0.2-4.1c6.6-4,14.4-5.6,22.1-4.8C129.4,128,125.7,138.6,118.1,146.2z"/>
	</g>
</g>
</svg>
